<svg xmlns="http://www.w3.org/2000/svg" xmlns:xlink="http://www.w3.org/1999/xlink" version="1.1" viewBox="24.12 323.94 564.12 143.41">
  <defs>
    <style>
      .cls-1 {
        fill: none;
      }

      .cls-2 {
        fill: #fab041;
      }

      .cls-3 {
        clip-path: url(#clippath-1);
      }

      .cls-4 {
        clip-path: url(#clippath-3);
      }

      .cls-5 {
        clip-path: url(#clippath-2);
      }

      .cls-6 {
        fill: #fff;
      }

      .cls-7 {
        clip-path: url(#clippath);
      }
    </style>
    <clipPath id="clippath">
      <rect class="cls-1" x="24.12" y="323.94" width="564.11" height="143.41"/>
    </clipPath>
    <clipPath id="clippath-1">
      <rect class="cls-1" x="24.12" y="323.94" width="564.11" height="143.41"/>
    </clipPath>
    <clipPath id="clippath-2">
      <rect class="cls-1" x="24.12" y="323.94" width="564.11" height="143.41"/>
    </clipPath>
    <clipPath id="clippath-3">
      <rect class="cls-1" x="247.22" y="380.66" width="117.92" height="29.98"/>
    </clipPath>
  </defs>
  <!-- Generator: Adobe Illustrator 28.6.0, SVG Export Plug-In . SVG Version: 1.2.0 Build 709)  -->
  <g>
    <g id="Layer_1">
      <polygon class="cls-6" points="194.16 421.89 194.16 430.07 170.15 430.07 162.5 422.41 162.5 369.11 157.22 369.11 157.22 360.8 170.41 346.29 179.12 346.29 179.12 358.82 192.45 358.82 192.45 369.11 179.12 369.11 179.12 417.01 194.16 421.89"/>
      <path class="cls-6" d="M206.69,352.89l-5.54-10.42v-6.33h17.28v6.33l-5.54,10.42h-6.2ZM224.77,422.28v7.78h-29.95v-7.78l6.73-6.86v-44.06h-6.73v-9.24l14.64-3.3h8.71v56.6l6.6,6.86Z"/>
      <polygon class="cls-6" points="261.97 421.89 261.97 430.07 237.96 430.07 230.31 422.41 230.31 369.11 225.03 369.11 225.03 360.8 238.22 346.29 246.93 346.29 246.93 358.82 260.25 358.82 260.25 369.11 246.93 369.11 246.93 417.01 261.97 421.89"/>
      <path class="cls-6" d="M298.52,396.95l-18.34,9.24v5.93l3.43,3.43h12.14l2.77-3.43v-15.17ZM315.14,369.11v60.95h-11.21l-4.75-6.99-4.75,6.99h-19.79l-10.43-10.42v-20.97l34.3-15.44v-10.69h-18.47l-4.88,12.66h-9.76v-26.38h39.31l10.42,10.29Z"/>
      <polygon class="cls-6" points="386.38 422.28 386.38 430.07 356.3 430.07 356.3 422.28 363.03 415.42 363.03 372.54 358.41 372.54 343.37 381.38 343.37 415.42 349.97 422.28 349.97 430.07 320.02 430.07 320.02 422.28 326.75 415.42 326.75 371.36 320.02 371.36 320.02 362.12 334.66 358.82 343.37 358.82 343.37 367.79 358.28 358.82 379.65 358.82 379.65 415.42 386.38 422.28"/>
      <polygon class="cls-6" points="440.87 397.21 440.87 419.65 430.44 430.07 389.28 430.07 389.28 407.77 400.36 407.77 405.25 416.21 424.24 416.21 424.24 404.07 420.81 400.64 400.63 400.64 390.21 390.23 390.21 369.11 401.29 358.82 439.94 358.82 439.94 381.65 428.86 381.65 424.9 372.54 406.83 372.54 406.83 383.36 410.26 386.79 430.44 386.79 440.87 397.21"/>
      <path class="cls-6" d="M463.56,384.68h16.75v-8.58l-3.43-3.56h-9.89l-3.43,3.56v8.58ZM497.2,405v25.07h-39.18l-11.08-10.42v-50.53l11.08-10.29h27.84l11.08,10.29v27.31h-33.38v16.36l3.43,3.43h15.04l4.88-11.21h10.29Z"/>
      <path class="cls-6" d="M537.7,396.95l-18.34,9.24v5.93l3.43,3.43h12.14l2.77-3.43v-15.17ZM554.33,369.11v60.95h-11.21l-4.75-6.99-4.75,6.99h-19.79l-10.42-10.42v-20.97l34.3-15.44v-10.69h-18.47l-4.88,12.66h-9.76v-26.38h39.31l10.42,10.29Z"/>
      <polygon class="cls-6" points="573.59 328.76 552.21 332.06 552.21 341.29 565.01 341.29 565.01 415.42 558.28 422.28 558.28 430.07 588.24 430.07 588.24 422.28 581.63 415.42 581.63 328.76 573.59 328.76"/>
      <g class="cls-7">
        <path class="cls-6" d="M225.53,465.13c1.13,0,1.92-.79,1.92-1.82s-.79-1.82-1.92-1.82h-2.84v3.65h2.84ZM225.32,459.66c.91,0,1.62-.71,1.62-1.52s-.71-1.52-1.62-1.52h-2.63v3.03h2.63ZM220.27,454.51h5.26c2.22,0,3.84,1.62,3.84,3.54,0,.87-.38,1.47-.77,1.86-.22.22-.48.43-.75.56.38.18.71.41,1.01.69.51.48,1.01,1.3,1.01,2.44,0,1.92-1.72,3.65-4.15,3.65h-5.46v-12.74Z"/>
      </g>
      <path class="cls-6" d="M238.89,457.74l1.62,4.65h-3.24l1.62-4.65ZM237.77,454.51l-4.76,12.74h2.53l.91-2.63h4.86l.91,2.63h2.53l-4.76-12.74h-2.22Z"/>
      <g class="cls-3">
        <path class="cls-6" d="M250.62,463.2c0,1.13.81,1.92,2.12,1.92,1.44,0,2.12-.71,2.12-1.52,0-2.32-6.57-1.11-6.57-5.54,0-1.94,1.72-3.66,4.45-3.66,2.53,0,4.25,1.72,4.25,4.04h-2.33c0-1.13-.7-1.82-1.92-1.82s-1.92.71-1.92,1.42c0,2.21,6.57,1.03,6.57,5.66,0,1.82-1.84,3.64-4.65,3.64s-4.55-1.72-4.55-4.15h2.43Z"/>
      </g>
      <polygon class="cls-6" points="262.16 454.51 262.16 467.25 271.16 467.25 271.16 464.92 264.59 464.92 264.59 461.89 270.45 461.89 270.45 459.56 264.59 459.56 264.59 456.83 270.96 456.83 270.96 454.51 262.16 454.51"/>
      <polygon class="cls-6" points="286.84 454.51 282.49 463.91 278.14 454.51 276.02 454.51 276.02 467.25 278.45 467.25 278.45 460.17 281.69 467.25 283.3 467.25 286.54 460.17 286.54 467.25 288.97 467.25 288.97 454.51 286.84 454.51"/>
      <polygon class="cls-6" points="294.44 454.51 294.44 467.25 303.44 467.25 303.44 464.92 296.87 464.92 296.87 461.89 302.73 461.89 302.73 459.56 296.87 459.56 296.87 456.83 303.24 456.83 303.24 454.51 294.44 454.51"/>
      <polygon class="cls-6" points="316.09 454.51 316.09 462.8 310.42 454.51 308.3 454.51 308.3 467.25 310.73 467.25 310.73 458.96 316.39 467.25 318.51 467.25 318.51 454.51 316.09 454.51"/>
      <polygon class="cls-6" points="322.97 454.51 322.97 456.83 326.71 456.83 326.71 467.25 329.14 467.25 329.14 456.83 332.88 456.83 332.88 454.51 322.97 454.51"/>
      <polygon class="cls-6" points="357.67 454.51 355.14 462.8 352.51 454.51 351.1 454.51 348.47 462.8 345.94 454.51 343.51 454.51 347.56 467.25 349.27 467.25 351.8 459.26 354.33 467.25 356.05 467.25 360.1 454.51 357.67 454.51"/>
      <path class="cls-6" d="M367.99,457.74l1.62,4.65h-3.24l1.62-4.65ZM366.88,454.51l-4.76,12.74h2.53l.91-2.63h4.86l.91,2.63h2.53l-4.76-12.74h-2.22Z"/>
      <polygon class="cls-6" points="376.09 454.51 376.09 456.83 379.83 456.83 379.83 467.25 382.26 467.25 382.26 456.83 386 456.83 386 454.51 376.09 454.51"/>
      <polygon class="cls-6" points="390.46 454.51 390.46 467.25 399.46 467.25 399.46 464.92 392.88 464.92 392.88 461.89 398.75 461.89 398.75 459.56 392.88 459.56 392.88 456.83 399.26 456.83 399.26 454.51 390.46 454.51"/>
      <g class="cls-5">
        <path class="cls-6" d="M409.38,460.27c1.03,0,1.82-.81,1.82-1.72s-.79-1.72-1.82-1.72h-2.63v3.44h2.63ZM404.32,454.51h5.06c2.43,0,4.25,1.82,4.25,3.94,0,1.44-.66,2.35-1.37,2.94-.41.34-.85.63-1.36.81l3.04,5.06h-2.73l-2.63-4.65h-1.82v4.65h-2.43v-12.74Z"/>
        <path class="cls-6" d="M423.24,460.67c1.01,0,1.92-.91,1.92-1.92s-.91-1.92-1.92-1.92h-2.33v3.84h2.33ZM418.49,454.51h4.76c2.43,0,4.35,1.9,4.35,4.25s-1.92,4.25-4.35,4.25h-2.33v4.25h-2.43v-12.74Z"/>
        <path class="cls-6" d="M437.41,460.27c1.03,0,1.82-.81,1.82-1.72s-.79-1.72-1.82-1.72h-2.63v3.44h2.63ZM432.35,454.51h5.06c2.43,0,4.25,1.82,4.25,3.94,0,1.44-.66,2.35-1.37,2.94-.41.34-.85.63-1.36.81l3.04,5.06h-2.73l-2.63-4.65h-1.82v4.65h-2.43v-12.74Z"/>
        <path class="cls-6" d="M448.23,460.88c0,2.43,1.72,4.15,3.74,4.15s3.75-1.72,3.75-4.15-1.72-4.15-3.75-4.15-3.74,1.72-3.74,4.15M458.15,460.88c0,3.64-2.83,6.47-6.17,6.47s-6.17-2.83-6.17-6.47,2.83-6.47,6.17-6.47,6.17,2.83,6.17,6.47"/>
        <path class="cls-6" d="M464.63,460.88c0,2.43,1.72,4.15,3.74,4.15s3.75-1.72,3.75-4.15-1.72-4.15-3.75-4.15-3.74,1.72-3.74,4.15M474.54,460.88c0,3.64-2.83,6.47-6.17,6.47s-6.17-2.83-6.17-6.47,2.83-6.47,6.17-6.47,6.17,2.83,6.17,6.47"/>
      </g>
      <polygon class="cls-6" points="479.3 454.51 479.3 467.25 481.73 467.25 481.73 462.29 486.68 462.29 486.68 459.97 481.73 459.97 481.73 456.83 487.79 456.83 487.79 454.51 479.3 454.51"/>
      <rect class="cls-6" x="492.45" y="454.51" width="2.43" height="12.74"/>
      <polygon class="cls-6" points="508.13 454.51 508.13 462.8 502.47 454.51 500.34 454.51 500.34 467.25 502.77 467.25 502.77 458.96 508.44 467.25 510.56 467.25 510.56 454.51 508.13 454.51"/>
      <g class="cls-4">
        <path class="cls-6" d="M525.13,466.04c-.3.26-.63.49-.99.66-.63.33-1.52.65-2.65.65-3.34,0-6.17-2.83-6.17-6.47s2.83-6.47,6.17-6.47c2.91,0,5.08,2.12,5.66,4.55h-2.53c-.32-1.11-1.42-2.22-3.13-2.22-2.02,0-3.74,1.72-3.74,4.15s1.72,4.14,3.74,4.14c1.27,0,2.08-.56,2.57-1.15.28-.34.51-.75.66-1.18h-3.33v-2.12h5.97v6.68h-1.72l-.51-1.22Z"/>
      </g>
      <polygon class="cls-2" points="44.08 323.94 24.12 334.61 24.12 362.7 45.46 362.7 45.46 345.29 103.6 345.29 103.6 362.7 124.94 362.7 124.94 334.61 103.78 323.94 44.08 323.94"/>
      <polygon class="cls-2" points="85.2 402.99 74.53 408.97 63.86 402.99 63.86 334.61 85.2 334.61 85.2 402.99"/>
      <polygon class="cls-2" points="103.6 376.53 103.6 411.57 74.53 427.92 45.46 411.57 45.46 376.53 24.12 376.53 24.12 424.05 74.53 452.41 124.94 424.05 124.94 376.53 103.6 376.53"/>
    </g>
  </g>
</svg>