<svg xmlns="http://www.w3.org/2000/svg" xmlns:xlink="http://www.w3.org/1999/xlink" version="1.1" viewBox="64.78 95.06 482.8 615.18">
  <defs>
    <style>
      .cls-1 {
        fill: none;
      }

      .cls-2 {
        fill: #ffeed6;
      }

      .cls-3 {
        clip-path: url(#clippath-1);
      }

      .cls-4 {
        clip-path: url(#clippath-2);
      }

      .cls-5 {
        opacity: .28;
      }

      .cls-6 {
        clip-path: url(#clippath);
      }
    </style>
    <clipPath id="clippath">
      <rect class="cls-1" x="64.78" y="95.06" width="482.8" height="615.18"/>
    </clipPath>
    <clipPath id="clippath-1">
      <rect class="cls-1" x="64.78" y="95.06" width="482.8" height="615.18"/>
    </clipPath>
    <clipPath id="clippath-2">
      <rect class="cls-1" x="-37.88" y="4.48" width="688.1" height="711.79"/>
    </clipPath>
  </defs>
  <!-- Generator: Adobe Illustrator 28.6.0, SVG Export Plug-In . SVG Version: 1.2.0 Build 709)  -->
  <g>
    <g id="Layer_1">
      <g class="cls-6">
        <g class="cls-3">
          <g class="cls-5">
            <g class="cls-4">
              <polygon class="cls-2" points="547.58 280.63 445.36 280.63 445.36 197.27 166.99 197.27 166.99 280.63 64.78 280.63 64.78 146.17 160.38 95.06 446.26 95.06 547.58 146.17 547.58 280.63"/>
              <polygon class="cls-2" points="357.28 473.59 306.18 502.19 255.07 473.59 255.07 146.17 357.28 146.17 357.28 473.59"/>
              <polygon class="cls-2" points="306.18 710.24 64.78 574.4 64.78 346.85 166.99 346.85 166.99 514.63 306.18 592.95 445.37 514.63 445.37 346.85 547.58 346.85 547.58 574.4 306.18 710.24"/>
            </g>
          </g>
        </g>
      </g>
    </g>
  </g>
</svg>